<?xml version="1.0" encoding="UTF-8" standalone="no"?>
<!-- Created with Inkscape (http://www.inkscape.org/) -->

<svg
   version="1.1"
   id="svg59"
   width="346.23999"
   height="284.08365"
   viewBox="0 0 346.23999 284.08365"
   xmlns="http://www.w3.org/2000/svg"
   xmlns:svg="http://www.w3.org/2000/svg">
  <defs
     id="defs63" />
  <g
     id="g65"
     transform="translate(85.24465,7.6795054)">
    <path
       style="fill:#000000;stroke-width:0.32"
       d="m -48.08153,275.95741 c -6.39065,-0.82069 -13.4352,-3.5646 -19.08302,-7.433 -3.08565,-2.11348 -8.33509,-7.36504 -10.45349,-10.45772 -3.2738,-4.77945 -5.77645,-10.68524 -7.04556,-16.6262 -0.55466,-2.59646 -0.58105,-7.46532 -0.58105,-107.2 0,-99.73467 0.0264,-104.603534 0.58105,-107.199995 1.90104,-8.899156 5.74761,-16.088661 11.89895,-22.2400004 6.15134,-6.1513393 13.34084,-9.997902 22.24,-11.8989504 2.60371,-0.5562092 8.52045,-0.5810496 138.4,-0.5810496 129.87955,0 135.79628,0.02484 138.4,0.5810496 8.89917,1.9010484 16.08867,5.7476111 22.24,11.8989504 6.15133,6.1513394 9.99789,13.3408444 11.89894,22.2400004 0.55466,2.596461 0.58106,7.465325 0.58106,107.199995 0,99.73468 -0.0262,104.60354 -0.58106,107.2 -1.90105,8.89916 -5.74761,16.08866 -11.89894,22.24 -4.88618,4.88616 -10.29267,8.24607 -16.69307,10.37403 -4.91423,1.63385 -7.16599,1.97736 -14.2231,2.16977 l -6.59617,0.17984 -0.003,-2.68182 c -0.004,-3.06244 -0.60521,-12.39192 -1.02939,-15.96182 -0.15685,-1.32 -0.50309,-4.632 -0.76943,-7.36 -0.91046,-9.32566 -1.41681,-11.77647 -3.66935,-17.76 -5.11502,-13.58732 -5.83753,-14.75735 -11.95041,-19.35252 -2.22972,-1.67611 -4.89372,-3.47714 -5.92,-4.00227 -1.02629,-0.52514 -2.80198,-1.46398 -3.94598,-2.08632 -3.15985,-1.71896 -6.18745,-3.00405 -12.07749,-5.12638 -2.94938,-1.06273 -6.26403,-2.35744 -7.36589,-2.87713 -3.57984,-1.68841 -2.91972,-2.11377 -7.77129,5.00757 -2.43365,3.57222 -5.42084,7.51018 -6.87129,9.0583 -1.41128,1.50631 -3.13928,3.45859 -3.84,4.3384 -1.84124,2.31182 -5.17156,5.56139 -7.54035,7.35754 -1.12953,0.85647 -2.97284,2.28747 -4.09625,3.18001 l -2.04257,1.6228 0.21389,8.64 c 0.11764,4.752 0.34471,9.864 0.5046,11.36 0.68587,6.4172 1.0144,14.88412 0.6798,17.51973 -0.57366,4.51856 -1.96949,6.8542 -4.36476,7.30356 -2.33212,0.43751 -4.49865,-1.05783 -4.99328,-3.44636 -0.33584,-1.62174 -0.87243,-13.43703 -1.17802,-25.93874 -0.1194,-4.88499 -0.33528,-8.89656 -0.47972,-8.91459 -0.53624,-0.0669 -10.96703,6.97579 -12.69829,8.57371 -3.58634,3.31011 -6.72045,8.14462 -8.26083,12.74269 -0.35376,1.056 -0.94554,2.52907 -1.31506,3.27349 -0.9409,1.89573 -1.9431,8.14568 -1.9431,12.11831 0,2.74507 -0.0841,3.3282 -0.48,3.3282 -0.76129,0 -0.66189,-7.49039 0.15221,-11.46973 0.66271,-3.23936 2.75341,-9.10807 4.40684,-12.37027 1.33494,-2.63381 4.5066,-6.68895 6.78752,-8.67821 1.84856,-1.61219 15.0646,-10.54202 18.57343,-12.54973 0.968,-0.55387 2.63978,-1.69218 3.71506,-2.52955 1.07528,-0.83738 3.37928,-2.62141 5.12,-3.96451 4.36256,-3.36606 12.84754,-12.41676 16.37275,-17.46436 6.26364,-8.96867 5.55239,-7.75933 12.38444,-21.05728 3.15918,-6.14906 5.43782,-12.51741 8.15323,-22.78672 0.68784,-2.6013 1.6087,-5.95364 2.04637,-7.44964 1.48704,-5.08296 3.06961,-11.52348 3.71708,-15.12718 0.35503,-1.97605 0.87941,-4.83824 1.16529,-6.36042 0.90826,-4.83605 0.11698,-18.72275 -1.49248,-26.1924 -2.10808,-9.783829 -3.12343,-12.762985 -7.86859,-23.087419 -0.94223,-2.050083 -1.71315,-3.817485 -1.71315,-3.927562 0,-0.28536 -2.83247,-5.95806 -4.48636,-8.985014 -2.18519,-3.999357 -4.14396,-6.936675 -4.73419,-7.09927 -0.2967,-0.08174 -1.25945,-1.087357 -2.13945,-2.234714 -2.27231,-2.962675 -8.36691,-8.678742 -11.04616,-10.360096 -1.24972,-0.784256 -3.16358,-1.98689 -4.25303,-2.672518 -1.08964,-0.685629 -3.63701,-2.141492 -5.66101,-3.235245 -2.024,-1.093754 -4.82851,-2.656784 -6.23225,-3.473402 -1.40374,-0.816614 -2.68844,-1.484755 -2.85489,-1.484755 -0.16646,0 -1.19905,-0.358618 -2.29466,-0.796928 -1.0956,-0.438314 -2.9789,-1.01681 -4.1851,-1.285555 -1.20621,-0.268743 -2.5171,-0.560867 -2.9131,-0.649165 -0.396,-0.0883 -0.72,-0.373802 -0.72,-0.634448 0,-0.573347 -0.28435,-0.575136 2.8418,0.01789 2.24446,0.425766 8.02548,2.267037 8.99066,2.863552 2.24484,1.387382 -10.32379,-11.906064 -14.39246,-15.222467 -1.496,-1.219399 -3.58243,-2.937202 -4.63652,-3.817342 -1.05408,-0.880139 -2.71008,-2.015324 -3.68,-2.522634 -0.96991,-0.507309 -2.90119,-1.580088 -4.29171,-2.383953 -1.39053,-0.803864 -3.91053,-2.054012 -5.6,-2.778105 -1.68948,-0.724093 -4.09985,-1.810252 -5.3564,-2.413687 -2.00479,-0.962771 -2.59278,-1.097158 -4.80039,-1.097158 -2.36292,0 -2.74107,0.10368 -6.22426,1.706524 -2.03968,0.938587 -4.9195,2.492857 -6.39961,3.453932 -1.48011,0.961075 -3.63703,2.273603 -4.79315,2.916728 -1.15613,0.643125 -2.95613,1.795243 -4,2.560262 -3.06779,2.24827 -6.89805,4.837108 -8.61796,5.824797 -2.51997,1.447139 -9.13457,5.921511 -10.72,7.251437 -6.443,5.40464 -8.83747,7.580829 -13.54836,12.313286 -2.9636,2.977168 -6.05258,6.349034 -6.86441,7.493034 -0.81183,1.144 -2.27898,3.088 -3.26034,4.32 -4.23919,5.321862 -7.28947,9.940211 -9.56866,14.487667 -3.02204,6.02961 -4.10081,8.991159 -5.27165,14.472333 -1.11,5.19629 -1.95046,11.162786 -1.61911,11.494136 0.093,0.093 2.26707,-1.958546 4.83127,-4.559006 2.56419,-2.60045 5.90396,-5.847284 7.42171,-7.215172 1.51775,-1.367884 3.24278,-2.944467 3.83339,-3.503513 1.10991,-1.050583 1.96616,-1.317303 1.96616,-0.612451 0,0.222195 -1.188,1.480547 -2.64,2.796336 -9.90469,8.97552 -18.85017,18.720925 -20.43677002,22.264255 -1.31928,2.94632 -1.586,12.74029 -0.49607,18.21541 0.24525,1.232 0.96742002,5.22718 1.60482002,8.87819 1.23748,7.08824 2.67577,13.20884 4.68149,19.92181 0.68361,2.288 1.61669,5.672 2.07349,7.52 2.10999,8.53588 5.04712,16.82867 7.9336,22.4 5.58076,10.77168 6.84988,13.10189 8.27843,15.2 0.83885,1.232 2.57723,3.77623 3.86309,5.65384 2.08628,3.0464 5.8726,7.4919 11.61792,13.64056 1.056,1.13013 3.216,3.04759 4.8,4.26102 1.584,1.21343 3.94762,3.03387 5.25248,4.04541 1.30486,1.01154 3.70765,2.63117 5.33953,3.59917 1.63187,0.968 6.10826,3.86179 9.94752,6.43065 11.098,7.42569 13.79748,10.94681 17.74396,23.14469 0.98494,3.0443 1.57812,7.55771 1.49542,11.37838 -0.0659,3.04657 -0.14885,3.52628 -0.60939,3.52628 -0.46769,0 -0.55377,-0.618 -0.70199,-5.04 -0.18298,-5.45884 -0.77626,-8.86381 -1.99997,-11.47824 -0.42174,-0.90103 -1.00464,-2.34103 -1.29534,-3.2 -1.4134,-4.17636 -4.95448,-9.52915 -8.02593,-12.1322 -0.82391,-0.69825 -4.02888,-2.95004 -7.12215,-5.00396 l -5.62414,-3.7344 -0.22309,6.6144 c -1.01309,30.03687 -0.97325,29.60041 -2.84468,31.16275 -1.97774,1.65109 -5.00494,1.05717 -6.36555,-1.24889 -1.65145,-2.799 -2.03706,-9.47196 -1.106,-19.13946 0.2712,-2.816 0.621,-9.224 0.77733,-14.24 l 0.28423,-9.12 -1.02112,-0.91022 c -0.56162,-0.50063 -2.38912,-1.96 -4.06112,-3.24306 -5.05196,-3.87676 -13.69876,-13.35557 -18.16767,-19.91579 -2.40284,-3.52729 -4.9167,-7.27207 -5.39886,-8.04242 -0.0384,-0.0613 -1.26761,0.41628 -2.73163,1.06133 -1.46401,0.64505 -5.25384,2.10654 -8.42184,3.24775 -11.92879,4.29711 -23.35106,11.0461 -26.94221,15.91911 -2.30134,3.12282 -2.92886,4.49927 -6.87637,15.0833 -1.93701,5.19346 -2.76583,9.50898 -3.77966,19.68 -0.18421,1.848 -0.55506,5.448 -0.82411,8 -0.26905,2.552 -0.51809,7.12349 -0.55342,10.15888 l -0.0642,5.51888 -8.64,-0.0394 c -4.752,-0.0216 -9.6286,-0.16631 -10.83688,-0.32148 z M 90.76204,255.1471 c -0.0845,-0.23464 -0.44772,-1.70566 -0.80715,-3.26893 -0.73929,-3.21546 -2.98894,-9.17868 -4.65083,-12.32814 -1.61471,-3.06004 -4.07193,-6.18968 -6.16366,-7.85037 -1.00378,-0.79692 -3.33705,-2.19205 -5.18505,-3.10027 -1.848,-0.90823 -3.936,-2.05214 -4.64,-2.54204 -1.80294,-1.25461 -10.96014,-7.10529 -14.4,-9.20038 -2.97339,-1.81098 -8.22513,-6.21457 -11.43019,-9.58422 -2.87624,-3.02395 -11.36369,-16.22943 -14.62273,-22.75126 -4.34011,-8.68521 -6.11916,-13.54498 -8.48383,-23.17491 -0.95971,-3.90835 -2.24155,-8.83409 -2.84853,-10.94609 -0.60698,-2.112 -1.35076,-4.92 -1.65284,-6.24 -0.30208,-1.32 -1.27656,-5.064 -2.16552,-8.32 -1.48744,-5.44812 -1.62691,-6.26435 -1.74968,-10.24 -0.16168,-5.23571 0.46087,-9.87717 1.64721,-12.28098 1.12123,-2.27187 3.47469,-5.16792 5.18562,-6.38116 1.73205,-1.22822 9.64856,-5.63614 12.76049,-7.105059 2.09674,-0.98972 11.65268,-3.790656 16.43087,-4.816046 1.17102,-0.2513 4.76643,-0.74471 7.9898,-1.09647 3.22337,-0.35175 7.03937,-0.85116 8.48,-1.10979 1.44063,-0.25864 4.27533,-0.695866 6.29933,-0.971623 10.99797,-1.4984 10.67689,-1.478758 20.64,-1.262685 5.28,0.114509 11.112,0.401581 12.96,0.637936 9.63328,1.232082 13.70789,1.801802 14.72,2.058192 0.616,0.15604 2.128,0.37871 3.36,0.49481 4.28642,0.40394 9.93042,1.08939 11.5554,1.40339 2.80295,0.54161 12.53903,3.210306 14.755,4.044396 3.74038,1.407869 14.15851,7.329959 15.94155,9.061829 1.71301,1.66385 3.84631,4.78949 4.39762,6.44326 0.8261,2.47805 1.27664,7.05265 1.12222,11.39467 -0.12939,3.63827 -0.32087,4.7676 -1.62179,9.56533 -0.8113,2.992 -2.05525,7.744 -2.76434,10.56 -0.70909,2.816 -1.78315,6.992 -2.38679,9.28 -0.60363,2.288 -1.40832,5.528 -1.78819,7.2 -1.67132,7.35625 -3.36521,12.06965 -7.21199,20.06802 -2.72762,5.67136 -4.25951,8.28818 -9.70124,16.57198 -2.47982,3.77495 -4.85528,6.97319 -6.26574,8.43596 -3.13999,3.25645 -8.54387,7.88419 -10.18289,8.72035 -0.74933,0.38228 -3.12412,1.8625 -5.27731,3.28937 -8.25846,5.47271 -11.57475,7.51566 -15.13151,9.32152 -3.05637,1.55181 -4.08887,2.27891 -6.09273,4.29062 -2.64979,2.66016 -4.57841,5.63577 -6.28289,9.69366 -0.61186,1.45669 -1.25789,2.9499 -1.4356,3.31825 -0.17772,0.36836 -0.80229,2.52415 -1.38795,4.79067 -0.9915,3.83714 -1.54058,4.96341 -1.91414,3.92621 z m -4.63957,-39.70661 c 0.21503,-0.924 0.68246,-2.37174 1.03873,-3.2172 0.41848,-0.9931 0.53789,-1.64706 0.33736,-1.84759 -0.36686,-0.36686 -3.58524,-0.93072 -5.32738,-0.93336 -0.84819,-0.001 -1.90042,-0.3968 -3.42602,-1.2878 -3.50081,-2.04458 -3.97508,-3.28301 -2.06635,-5.39574 1.71434,-1.89758 2.23879,-2.0133 8.60824,-1.89944 l 5.65713,0.10113 0.19271,-0.76953 c 0.35191,-1.40529 -0.0775,-1.69589 -4.81005,-3.25492 -2.76727,-0.91163 -6.28709,-0.8348 -8.47779,0.18504 -2.14995,1.00087 -3.04164,1.70424 -4.79271,3.78049 -0.7695,0.91241 -1.67307,1.98292 -2.00792,2.37892 -0.44018,0.52054 -0.95613,0.72 -1.86251,0.72 -2.35159,0 -3.67327,-2.63684 -2.94742,-5.88029 0.54185,-2.42122 2.21529,-4.86168 6.03245,-8.7974 0.74557,-0.76874 1.28928,-1.50498 1.20824,-1.63611 -0.1367,-0.22118 -1.68773,-0.68062 -3.74938,-1.11061 -0.47605,-0.0993 -1.91605,-1.10246 -3.2,-2.22927 -3.40747,-2.99044 -5.71971,-6.90048 -6.84423,-11.5737 -1.89204,-7.86292 -3.36832,-11.08576 -6.61111,-14.43262 -3.34071,-3.44792 -3.76731,-3.55966 -8.83668,-2.31459 -2.66365,0.65422 -3.6072,2.48662 -4.02394,7.81459 -0.41754,5.33818 1.4164,12.04456 5.20672,19.04 4.36462,8.05538 5.78453,10.55106 7.06693,12.42109 2.02809,2.95743 10.63145,11.18624 14.10786,13.49368 1.672,1.10977 3.544,2.41055 4.16,2.8906 2.06823,1.6118 5.89089,3.31438 9.76,4.34704 5.29766,1.41392 5.13626,1.43098 5.60712,-0.59241 z m 4.03938,-39.57025 c -0.1168,-5.38436 -0.30854,-12.66975 -0.4261,-16.18975 l -0.21375,-6.4 -1.84513,3.84 c -3.13364,6.52154 -3.75955,9.39252 -3.00751,13.79507 0.15924,0.93221 0.0298,2.00954 -0.44468,3.70041 -0.75781,2.70067 -0.88681,6.69441 -0.2566,7.94452 0.22181,0.44 0.71318,0.84464 1.09194,0.8992 0.37876,0.0546 1.05919,0.585 1.51207,1.17875 0.81319,1.06614 1.8758,1.45141 3.19268,1.15755 0.5887,-0.13137 0.60221,-0.46891 0.39708,-9.92575 z m 38.45742,-33.62316 c 1.50356,-1.2083 2.13765,-2.35208 2.4247,-4.37377 0.16258,-1.145 0.0437,-1.53725 -0.86608,-2.85741 -1.37962,-2.00197 -2.2991,-2.64805 -4.11826,-2.89374 -2.30898,-0.31184 -3.67718,0.0864 -5.23735,1.52454 -1.09777,1.0119 -1.44003,1.58263 -1.60375,2.67438 -0.43555,2.90451 0.54224,5.15012 2.88318,6.62151 0.76014,0.47778 1.43131,0.5893 3.06075,0.50859 1.82013,-0.0902 2.26231,-0.24417 3.45681,-1.2041 z m -65.22392,-7.20659 v -5.28 h -5.28 -5.28 v 5.28 5.28 h 5.28 5.28 z m 52.74392,-5.59341 c 1.50356,-1.2083 2.13765,-2.35208 2.4247,-4.37377 0.16258,-1.145 0.0437,-1.53725 -0.86608,-2.85741 -1.37962,-2.00197 -2.2991,-2.64805 -4.11826,-2.89374 -2.30898,-0.31184 -3.67718,0.0864 -5.23735,1.52454 -1.09777,1.0119 -1.44003,1.58263 -1.60375,2.67438 -0.43555,2.90451 0.54224,5.15012 2.88318,6.62151 0.76014,0.47778 1.43131,0.5893 3.06075,0.50859 1.82013,-0.0901 2.26231,-0.24417 3.45681,-1.2041 z m 24,0 c 1.50356,-1.2083 2.13765,-2.35208 2.4247,-4.37377 0.16258,-1.145 0.0437,-1.53725 -0.86608,-2.85741 -1.37962,-2.00197 -2.2991,-2.64805 -4.11826,-2.89374 -2.30898,-0.31184 -3.67718,0.0864 -5.23735,1.52454 -1.09777,1.0119 -1.44003,1.58263 -1.60375,2.67438 -0.43555,2.90451 0.54224,5.15012 2.88318,6.62151 0.76014,0.47778 1.43131,0.5893 3.06075,0.50859 1.82013,-0.0901 2.26231,-0.24417 3.45681,-1.2041 z m -87.94392,-5.92659 v -5.28 h -5.28 -5.28 v 5.28 5.28 h 5.28 5.28 z m 11.2,0 v -5.28 h -5.28 -5.28 v 5.28 5.28 h 5.28 5.28 z m 11.2,0 v -5.28 h -5.28 -5.28 v 5.28 5.28 h 5.28 5.28 z m 53.70392,-6.23341 c 1.50356,-1.2083 2.13765,-2.35208 2.4247,-4.37377 0.16258,-1.145 0.0437,-1.53725 -0.86608,-2.85741 -1.37962,-2.00197 -2.2991,-2.64805 -4.11826,-2.89374 -2.30898,-0.31184 -3.67718,0.0864 -5.23735,1.52454 -1.09777,1.0119 -1.44003,1.58263 -1.60375,2.67438 -0.43555,2.90451 0.54224,5.15012 2.88318,6.62151 0.76014,0.47778 1.43131,0.5893 3.06075,0.50859 1.82013,-0.0902 2.26231,-0.24417 3.45681,-1.2041 z m -64.90392,-5.28659 v -5.28 h -5.28 -5.28 v 5.28 5.28 h 5.28 5.28 z"
       id="path177" />
  </g>
</svg>
